<?xml version="1.0" standalone="no"?>
<!DOCTYPE svg PUBLIC "-//W3C//DTD SVG 20010904//EN"
 "http://www.w3.org/TR/2001/REC-SVG-20010904/DTD/svg10.dtd">
<svg version="1.0" xmlns="http://www.w3.org/2000/svg"
 width="100.000000pt" height="100.000000pt" viewBox="0 0 100.000000 100.000000"
 preserveAspectRatio="xMidYMid meet">

<g transform="translate(0.000000,100.000000) scale(0.100000,-0.100000)"
fill="#000000" stroke="none">
<path d="M428 595 c15 -24 31 -45 37 -45 5 0 4 5 -3 12 -19 19 -14 32 5 17 16
-13 16 -12 0 14 -10 15 -15 32 -12 37 4 6 -7 10 -24 10 l-30 0 27 -45z m16 19
c9 -24 2 -26 -12 -4 -7 11 -8 20 -3 20 5 0 12 -7 15 -16z"/>
<path d="M485 630 c3 -5 8 -10 11 -10 2 0 4 5 4 10 0 6 -5 10 -11 10 -5 0 -7
-4 -4 -10z"/>
<path d="M510 635 c0 -3 7 -17 16 -30 9 -14 14 -32 10 -40 -3 -8 -1 -15 3 -15
17 0 19 28 5 49 -8 12 -12 26 -9 31 3 6 -1 10 -9 10 -9 0 -16 -2 -16 -5z"/>
<path d="M560 636 c0 -9 30 -14 35 -6 4 6 -3 10 -14 10 -12 0 -21 -2 -21 -4z"/>
<path d="M498 614 c-3 -5 3 -17 14 -26 21 -21 24 -10 5 17 -8 10 -16 14 -19 9z"/>
<path d="M174 388 c3 -18 8 -52 12 -75 8 -53 19 -55 29 -5 l8 37 11 -40 c14
-47 21 -39 31 30 4 28 9 58 12 68 2 9 0 17 -6 17 -6 0 -14 -19 -18 -42 l-8
-43 -5 39 c-7 52 -30 61 -30 11 0 -21 -4 -34 -10 -30 -5 3 -10 19 -10 36 0 16
-5 29 -11 29 -7 0 -9 -12 -5 -32z"/>
<path d="M290 345 c0 -73 1 -75 25 -75 14 0 25 5 25 10 0 6 -7 10 -15 10 -18
0 -21 46 -2 54 10 5 10 7 0 12 -18 8 -16 44 2 44 8 0 15 5 15 10 0 6 -11 10
-25 10 -24 0 -25 -2 -25 -75z"/>
<path d="M360 344 c0 -41 4 -73 9 -70 4 3 6 18 3 32 -3 19 -1 25 7 20 6 -4 11
-16 11 -26 0 -10 4 -21 9 -25 5 -3 11 28 13 70 2 49 -1 75 -8 75 -6 0 -9 -14
-7 -32 3 -25 2 -30 -6 -18 -6 8 -11 23 -11 33 0 9 -4 17 -10 17 -6 0 -10 -32
-10 -76z"/>
<path d="M430 345 c0 -67 2 -75 19 -75 21 0 37 18 35 40 -1 8 -2 36 -3 63 -1
43 -3 47 -26 47 -24 0 -25 -2 -25 -75z m40 6 c0 -28 -4 -53 -10 -56 -6 -4 -10
15 -10 49 0 31 5 56 10 56 6 0 10 -22 10 -49z"/>
<path d="M500 345 c0 -73 1 -75 25 -75 14 0 25 5 25 10 0 6 -7 10 -15 10 -18
0 -21 46 -2 54 10 5 10 7 0 12 -18 8 -16 44 2 44 8 0 15 5 15 10 0 6 -11 10
-25 10 -24 0 -25 -2 -25 -75z"/>
<path d="M560 351 c0 -39 5 -73 10 -76 6 -4 10 9 10 32 0 28 3 34 10 23 5 -8
10 -25 10 -37 0 -13 4 -23 8 -23 5 0 9 34 10 75 l1 75 -29 0 -30 0 0 -69z m40
29 c0 -11 -4 -20 -10 -20 -5 0 -10 9 -10 20 0 11 5 20 10 20 6 0 10 -9 10 -20z"/>
<path d="M639 408 c0 -7 -2 -24 -3 -37 -2 -16 3 -25 16 -29 11 -3 18 -13 18
-29 0 -22 -2 -24 -15 -13 -19 16 -28 9 -19 -14 4 -10 15 -16 28 -14 16 2 22
11 24 41 3 32 0 39 -17 44 -21 5 -30 43 -11 43 6 0 10 -4 10 -10 0 -5 5 -10
10 -10 6 0 10 9 10 20 0 15 -7 20 -25 20 -14 0 -25 -6 -26 -12z"/>
<path d="M704 406 c-3 -7 -4 -40 -2 -72 3 -55 5 -59 28 -59 24 0 25 3 28 73 3
71 3 72 -23 72 -14 0 -28 -6 -31 -14z m36 -62 c0 -34 -4 -53 -10 -49 -5 3 -10
28 -10 56 0 27 5 49 10 49 6 0 10 -25 10 -56z"/>
<path d="M770 351 c0 -72 19 -113 21 -44 l1 38 11 -32 c21 -55 27 -48 27 30 0
45 -4 77 -10 77 -5 0 -10 -12 -11 -27 l-1 -28 -10 28 c-17 46 -28 30 -28 -42z"/>
</g>
</svg>
